<?xml version="1.0" encoding="UTF-8" standalone="no"?>
<svg
   width="378.35419mm"
   height="121.66873mm"
   viewBox="0 0 378.35419 121.66873"
   version="1.1"
   id="svg8"
   inkscape:version="1.3.2 (091e20e, 2023-11-25, custom)"
   sodipodi:docname="process_font_more_letters.svg"
   xmlns:inkscape="http://www.inkscape.org/namespaces/inkscape"
   xmlns:sodipodi="http://sodipodi.sourceforge.net/DTD/sodipodi-0.dtd"
   xmlns="http://www.w3.org/2000/svg"
   xmlns:svg="http://www.w3.org/2000/svg"
   xmlns:rdf="http://www.w3.org/1999/02/22-rdf-syntax-ns#"
   xmlns:cc="http://creativecommons.org/ns#"
   xmlns:dc="http://purl.org/dc/elements/1.1/">
  <defs
     id="defs2" />
  <sodipodi:namedview
     id="base"
     pagecolor="#ffffff"
     bordercolor="#666666"
     borderopacity="1.0"
     inkscape:pageopacity="0.0"
     inkscape:pageshadow="2"
     inkscape:zoom="0.7"
     inkscape:cx="648.57143"
     inkscape:cy="182.14286"
     inkscape:document-units="px"
     inkscape:current-layer="svg8"
     inkscape:document-rotation="0"
     showgrid="true"
     showguides="true"
     inkscape:guide-bbox="true"
     inkscape:window-width="1920"
     inkscape:window-height="1017"
     inkscape:window-x="-8"
     inkscape:window-y="-8"
     inkscape:window-maximized="1"
     showborder="false"
     inkscape:showpageshadow="0"
     inkscape:pagecheckerboard="0"
     inkscape:deskcolor="#d1d1d1">
    <inkscape:grid
       type="xygrid"
       id="grid10"
       originx="9.9999995e-06"
       originy="35.718755"
       spacingy="0.26458334"
       spacingx="0.26458334"
       units="px"
       visible="true" />
    <sodipodi:guide
       position="119.06251,238.83125"
       orientation="1,0"
       id="guide12"
       inkscape:locked="false" />
    <sodipodi:guide
       position="140.22918,238.83125"
       orientation="1,0"
       id="guide18"
       inkscape:locked="false" />
    <sodipodi:guide
       position="142.87501,238.83125"
       orientation="1,0"
       id="guide20"
       inkscape:locked="false" />
    <sodipodi:guide
       position="164.04169,44.93956"
       orientation="1,0"
       id="guide24"
       inkscape:locked="false" />
    <sodipodi:guide
       position="187.85418,238.83125"
       orientation="1,0"
       id="guide26"
       inkscape:locked="false" />
    <sodipodi:guide
       position="166.68752,77.747911"
       orientation="1,0"
       id="guide28"
       inkscape:locked="false" />
    <sodipodi:guide
       position="211.66669,83.039581"
       orientation="1,0"
       id="guide30"
       inkscape:locked="false" />
    <sodipodi:guide
       position="214.31252,80.393741"
       orientation="1,0"
       id="guide32"
       inkscape:locked="false" />
    <sodipodi:guide
       position="238.12502,77.747911"
       orientation="1,0"
       id="guide34"
       inkscape:locked="false" />
    <sodipodi:guide
       position="235.47919,79.070831"
       orientation="1,0"
       id="guide36"
       inkscape:locked="false" />
    <sodipodi:guide
       position="259.29169,77.747911"
       orientation="1,0"
       id="guide38"
       inkscape:locked="false" />
    <sodipodi:guide
       position="261.93752,76.424991"
       orientation="1,0"
       id="guide40"
       inkscape:locked="false" />
    <sodipodi:guide
       position="283.10419,73.779161"
       orientation="1,0"
       id="guide42"
       inkscape:locked="false" />
    <sodipodi:guide
       position="119.06251,238.83125"
       orientation="1,0"
       id="guide46"
       inkscape:locked="false" />
    <sodipodi:guide
       position="116.41668,238.83125"
       orientation="1,0"
       id="guide48"
       inkscape:locked="false" />
    <sodipodi:guide
       position="44.979182,238.83126"
       orientation="1,0"
       id="guide68"
       inkscape:locked="false" />
    <sodipodi:guide
       position="47.625015,238.83126"
       orientation="1,0"
       id="guide70"
       inkscape:locked="false" />
    <sodipodi:guide
       position="68.791681,238.83126"
       orientation="1,0"
       id="guide72"
       inkscape:locked="false" />
    <sodipodi:guide
       position="71.437515,238.83126"
       orientation="1,0"
       id="guide74"
       inkscape:locked="false" />
    <sodipodi:guide
       position="92.604184,25.095809"
       orientation="1,0"
       id="guide967"
       inkscape:locked="false" />
    <sodipodi:guide
       position="44.979182,241.47709"
       orientation="0,-1"
       id="guide971"
       inkscape:locked="false" />
    <sodipodi:guide
       position="164.04168,209.72708"
       orientation="0,-1"
       id="guide1162"
       inkscape:locked="false" />
    <sodipodi:guide
       position="43.656263,26.418726"
       orientation="0,-1"
       id="guide1164"
       inkscape:locked="false" />
    <sodipodi:guide
       position="23.81251,156.81042"
       orientation="1,0"
       id="guide1225"
       inkscape:locked="false" />
    <sodipodi:guide
       position="37.04168,2.6062246"
       orientation="0,-1"
       id="guide1297"
       inkscape:locked="false" />
    <sodipodi:guide
       position="23.81251,7.8978915"
       orientation="0,-1"
       id="guide1392"
       inkscape:locked="false" />
    <sodipodi:guide
       position="33.976639,68.752061"
       orientation="0,-1"
       id="guide1785"
       inkscape:locked="false" />
    <sodipodi:guide
       position="285.75002,71.133331"
       orientation="1,0"
       id="guide1823"
       inkscape:locked="false" />
    <sodipodi:guide
       position="44.979182,63.460394"
       orientation="0,-1"
       id="guide1"
       inkscape:locked="false" />
    <sodipodi:guide
       position="95.250016,8.956239"
       orientation="1,0"
       id="guide13"
       inkscape:locked="false" />
    <sodipodi:guide
       position="190.50002,72.456241"
       orientation="1,0"
       id="guide19"
       inkscape:locked="false" />
    <sodipodi:guide
       position="306.91669,66.503121"
       orientation="1,0"
       id="guide27"
       inkscape:locked="false" />
    <sodipodi:guide
       position="309.56253,73.779161"
       orientation="1,0"
       id="guide29"
       inkscape:locked="false" />
    <sodipodi:guide
       position="333.37503,90.977081"
       orientation="1,0"
       id="guide31"
       inkscape:locked="false" />
    <sodipodi:guide
       position="330.7292,90.977081"
       orientation="1,0"
       id="guide37"
       inkscape:locked="false" />
    <sodipodi:guide
       position="354.5417,90.977081"
       orientation="1,0"
       id="guide39"
       inkscape:locked="false" />
    <sodipodi:guide
       position="357.18753,91.016871"
       orientation="1,0"
       id="guide41"
       inkscape:locked="false" />
    <sodipodi:guide
       position="378.3542,77.747911"
       orientation="1,0"
       id="guide43"
       inkscape:locked="false" />
    <sodipodi:guide
       position="21.166678,54.199977"
       orientation="1,0"
       id="guide44"
       inkscape:locked="false" />
    <sodipodi:guide
       position="44.979171,50.231225"
       orientation="0,-1"
       id="guide60"
       inkscape:locked="false" />
    <sodipodi:guide
       position="343.95836,57.904159"
       orientation="1,0"
       id="guide79"
       inkscape:locked="false" />
    <sodipodi:guide
       position="232.83336,31.710392"
       orientation="0,-1"
       id="guide80"
       inkscape:locked="false" />
    <sodipodi:guide
       position="103.18752,119.0229"
       orientation="0,-1"
       id="guide85"
       inkscape:locked="false" />
    <sodipodi:guide
       position="288.39586,100.50206"
       orientation="1,0"
       id="guide107"
       inkscape:locked="false" />
    <sodipodi:guide
       position="304.27086,100.50206"
       orientation="1,0"
       id="guide108"
       inkscape:locked="false" />
    <sodipodi:guide
       position="34.395846,105.79373"
       orientation="0,-1"
       id="guide21"
       inkscape:locked="false" />
  </sodipodi:namedview>
  <metadata
     id="metadata5">
    <rdf:RDF>
      <cc:Work
         rdf:about="">
        <dc:format>image/svg+xml</dc:format>
        <dc:type
           rdf:resource="http://purl.org/dc/dcmitype/StillImage" />
      </cc:Work>
    </rdf:RDF>
  </metadata>
  <path
     style="display:none;fill:#000000;stroke:none;stroke-width:0.264583px;stroke-linecap:butt;stroke-linejoin:miter;stroke-opacity:1"
     d="m 48.947931,121.66874 c -1.322916,1e-5 -1.322916,0.79376 -1.322914,1.32293 v 1.32291 l 17.197913,0.0396 v -1.32292 l -5.291667,5.29167 h -6.614584 l -5.291667,5.29167 2e-6,1.28331 h 19.84375 c 1.322917,1e-5 1.322917,-0.79374 1.322917,-1.32291 v -1.32292 l -15.875002,0.0396 -1.322916,1.32292 5.291667,-5.29167 h 6.614583 l 5.29167,-5.29167 -2e-6,-1.36251 z"
     id="path1575"
     sodipodi:nodetypes="ccccccccccccccccccc"
     inkscape:label="path1575" />
  <path
     style="fill:#000000;stroke:none;stroke-width:0.264583px;stroke-linecap:butt;stroke-linejoin:miter;stroke-opacity:1"
     d="m 144.19794,58.208332 -1.32292,1.32293 v 11.90624 h 7.9375 l 13.22917,-13.22916 h -3.96875 l -10.58334,10.58333 h -3.96875 v -10.58333 z"
     id="path1464"
     sodipodi:nodetypes="cccccccccc" />
  <path
     style="fill:#000000;stroke:none;stroke-width:0.264583px;stroke-linecap:butt;stroke-linejoin:miter;stroke-opacity:1"
     d="m 144.19794,95.249995 -1.32292,1.32293 v 11.906245 h 7.9375 l 13.22917,-13.229165 h -3.96875 L 149.4896,105.83334 h -3.96875 V 95.250005 Z"
     id="path1464-6"
     sodipodi:nodetypes="cccccccccc" />
  <path
     style="fill:none;stroke:#000000;stroke-width:0.264583px;stroke-linecap:butt;stroke-linejoin:miter;stroke-opacity:1"
     d="M 23.81251,89.93854 Z"
     id="path1526" />
  <path
     style="fill:none;stroke:#000000;stroke-width:0.264583px;stroke-linecap:butt;stroke-linejoin:miter;stroke-opacity:1"
     d="M 1e-5,121.66874 Z"
     id="path1536" />
  <g
     id="g1"
     inkscape:label="ProcessSharp"
     transform="translate(123.03126,2.606247)"
     style="display:inline" />
  <path
     id="path10"
     style="display:inline;fill:#000000;stroke:none;stroke-width:0.264583px;stroke-linecap:butt;stroke-linejoin:miter;stroke-opacity:1"
     d="m 239.44794,58.20834 -1.32292,1.32291 v 1.32292 h 15.875 2.64584 -1.32292 l 3.96875,1.32292 v -2.64584 -1.32291 z m -1.32291,9.260417 -1e-5,3.96875 h 19.84376 l 1.32291,-1.32293 v -1.32291 h -18.52083 1.32291 l 17.19792,-6.614577 -3.96875,-1.32292 z"
     sodipodi:nodetypes="cccccccccccccccccccc"
     inkscape:label="Z" />
  <path
     id="path10-1"
     style="display:inline;fill:#000000;stroke:none;stroke-width:0.264583px;stroke-linecap:butt;stroke-linejoin:miter;stroke-opacity:1"
     d="m 239.44795,95.250006 -1.32292,1.32291 v 1.32292 h 15.875 2.64584 -1.32292 l 3.96875,1.322916 v -2.645836 -1.32291 z m -1.32291,9.260414 -1e-5,3.96875 h 19.84376 l 1.32291,-1.32293 v -1.32291 h -18.52083 1.32291 l 17.19792,-6.614578 -3.96875,-1.322916 z"
     sodipodi:nodetypes="cccccccccccccccccccc"
     inkscape:label="Z" />
  <path
     id="path10-4"
     style="display:inline;fill:#000000;stroke:none;stroke-width:0.264583px;stroke-linecap:butt;stroke-linejoin:miter;stroke-opacity:1"
     d="m 54.239595,21.166681 -1.322918,1.32291 v 1.32292 h 11.906248 l -5.291667,5.291657 h 3.96875 l 5.291667,-5.291657 2e-6,-1.32292 4e-6,-1.32291 z m -1.322918,5.29167 -5.29167,5.291657 6e-6,2.64584 19.84375,10e-6 1.322916,-1.32293 v -1.32291 0 l -17.197919,-10e-6 2.645834,-2.64583 h 5.197168 1.417414 l 1.322918,-2.645827 z"
     sodipodi:nodetypes="ccccccccccccccccccccccc"
     inkscape:label="Z" />
  <path
     style="display:inline;fill:#000000;stroke:none;stroke-width:0.264583px;stroke-linecap:butt;stroke-linejoin:miter;stroke-opacity:1"
     d="m 235.47918,58.188546 -13.22916,13.268767 h -3.96875 l 5.29166,-5.29167 h -1.32291 l -7.9375,-7.977107 h 3.96875 l 5.29166,5.33128 h 2.64583 l 5.29167,-5.29167 z"
     id="path1571"
     sodipodi:nodetypes="ccccccccccc"
     inkscape:label="Y" />
  <path
     id="path1571-1"
     style="display:inline;fill:#000000;stroke:none;stroke-width:0.264583px;stroke-linecap:butt;stroke-linejoin:miter;stroke-opacity:1"
     inkscape:label="Y"
     d="m 285.75001,58.188702 5.29839,5.311303 h -1.32964 l -1.32291,1.322917 v 1.322917 h 6.61458 v 2.645833 h -5.29167 l -1.32291,1.322917 v 1.322917 h 6.61458 v 2.645833 h 1.32292 l 1.32291,-1.322917 v -1.322916 h 5.29167 l 1.32292,-1.322917 v -1.322917 h -6.61459 v -2.645833 h 5.29167 l 1.32292,-1.322917 v -1.322917 h -2.66547 l 5.3113,-5.311303 -3.96875,0.03927 -5.29167,5.272029 h -2.64583 l -5.29167,-5.311303 z" />
  <path
     style="display:inline;fill:#000000;stroke:none;stroke-width:0.264583px;stroke-linecap:butt;stroke-linejoin:miter;stroke-opacity:1"
     d="m 190.50003,58.208355 6.61458,6.61458 -6.61458,6.61458 h 3.96875 l 5.29166,-5.29166 h 2.64584 l 5.29166,5.29166 3.96875,10e-6 -6.61458,-6.61459 6.61458,-6.61458 -3.96875,-10e-6 -5.29166,5.29168 h -2.64584 l -5.29166,-5.29168 z"
     id="path1550"
     sodipodi:nodetypes="ccccccccccccccc"
     inkscape:label="X" />
  <path
     style="display:inline;fill:#000000;stroke:none;stroke-width:0.264583px;stroke-linecap:butt;stroke-linejoin:miter;stroke-opacity:1"
     d="m 190.50003,95.250008 6.61458,6.614582 -6.61458,6.61458 h 3.96875 l 5.29166,-5.29166 h 2.64584 l 5.29166,5.29166 3.96875,1e-5 -6.61458,-6.61459 6.61458,-6.614582 -3.96875,-10e-6 -5.29166,5.291682 h -2.64584 l -5.29166,-5.291682 z"
     id="path1550-9"
     sodipodi:nodetypes="ccccccccccccccc"
     inkscape:label="X" />
  <path
     id="path1466"
     style="display:inline;fill:#000000;stroke:none;stroke-width:0.264583px;stroke-linecap:butt;stroke-linejoin:miter;stroke-opacity:1"
     d="m 168.01044,58.208335 -1.32292,1.32292 v 11.90625 h 9.26042 l 1.32292,-1.32292 v 1.32292 l 9.26041,0.0398 1.32292,-1.32291 v -11.94605 h -1.32292 l -1.32291,1.32292 v 7.93749 l -1.32292,1.32292 -5.29167,1e-5 v -7.9375 h -1.32291 l -1.32292,1.32291 v 6.61459 h -6.61458 v -10.58334 z"
     inkscape:label="W"
     sodipodi:nodetypes="ccccccccccccccccccccc" />
  <path
     style="display:inline;fill:#000000;stroke:none;stroke-width:0.264583px;stroke-linecap:butt;stroke-linejoin:miter;stroke-opacity:1"
     d="m 120.38543,58.208345 -1.32291,1.32293 v 11.90624 l 19.84375,10e-6 1.32292,-1.32292 v -11.90625 l -1.32292,-10e-6 -1.32291,1.32293 v 7.9375 l -1.32292,1.32291 h -14.55209 v -10.58333 z"
     id="path1411"
     sodipodi:nodetypes="ccccccccccccc"
     inkscape:label="U" />
  <path
     style="display:inline;fill:#000000;stroke:none;stroke-width:0.264583px;stroke-linecap:butt;stroke-linejoin:miter;stroke-opacity:1"
     d="m 96.572934,58.208335 -1.322914,1.32293 v 1.32291 h 9.26041 v 10.58333 h 1.32292 l 1.32292,-1.32291 v -9.26042 h 7.9375 l 1.32291,-1.32291 v -1.32292 z"
     id="path1409"
     sodipodi:nodetypes="cccccccccccc"
     inkscape:label="T" />
  <path
     style="display:inline;fill:#000000;stroke:none;stroke-width:0.264583px;stroke-linecap:butt;stroke-linejoin:miter;stroke-opacity:1"
     d="m 91.281262,60.854175 h -15.875 l -1.32292,1.27567 v 1.37016 h 1.32292 17.19791 v 6.61459 l -1.32291,1.32292 -19.843748,-1e-5 v -1.32291 l 1.322918,-1.32292 h 15.875 l 1.32291,-1.32292 v -1.32292 l -1.32291,10e-6 -17.197918,-10e-6 v -6.61458 l 1.322918,-1.32291 19.84374,-1e-5 10e-6,1.32292 z"
     id="path145-7"
     sodipodi:nodetypes="ccccccccccccccccccccc"
     inkscape:label="S" />
  <path
     style="display:inline;fill:#000000;stroke:none;stroke-width:0.264583px;stroke-linecap:butt;stroke-linejoin:miter;stroke-opacity:1"
     d="m 91.281266,97.895839 h -15.875 l -1.32292,1.27567 v 1.370161 h 1.32292 17.19791 v 6.61459 l -1.32291,1.32292 -19.843748,-1e-5 v -1.32291 l 1.322918,-1.32292 h 15.875 l 1.32291,-1.32292 v -1.32292 l -1.32291,1e-5 -17.197918,-1e-5 v -6.614581 l 1.322918,-1.32291 19.84374,-1e-5 1e-5,1.32292 z"
     id="path145-7-9"
     sodipodi:nodetypes="ccccccccccccccccccccc"
     inkscape:label="S" />
  <path
     id="path145-7-5"
     style="display:inline;fill:#000000;stroke:none;stroke-width:0.264583px;stroke-linecap:butt;stroke-linejoin:miter;stroke-opacity:1"
     inkscape:label="S"
     d="m 105.83335,6e-6 -1.32292,1.322916 v 1.322917 h -7.9375 l -1.322917,1.322917 v 6.614583 h 9.260417 v 2.645834 h -7.9375 l -1.322917,1.322916 v 1.322917 h 9.260417 v 2.645834 h 1.32292 l 1.32291,-1.322917 v -1.322917 h 7.9375 l 1.32292,-1.322917 V 7.937506 h -9.26042 V 5.291672 h 7.9375 l 1.32292,-1.322916 V 2.645839 h -9.26042 V 1.322922 6e-6 Z m -6.614587,5.291666 h 5.291667 V 7.937506 H 99.218763 97.895846 V 6.567564 Z m 7.937497,5.291667 h 5.29167 1.32292 v 1.322917 l -1.32292,1.322917 h -5.29167 z" />
  <path
     id="path1460"
     style="display:inline;fill:#000000;fill-opacity:1;stroke:none;stroke-width:0.264583px;stroke-linecap:butt;stroke-linejoin:miter;stroke-opacity:1"
     d="m 48.947921,58.208339 -1.322917,1.322917 v 11.90625 h 1.322917 l 1.322916,-1.322916 v -2.645834 l 1.322917,-1.322916 h 7.9375 l 5.291667,5.291666 h 3.96875 L 63.500004,66.14584 h 3.968751 l 1.322916,-1.322917 v -6.614584 z m 2.645833,2.645834 h 14.552084 v 1.322917 l -1.322917,1.322916 H 50.270837 V 62.17709 Z"
     inkscape:label="R"
     sodipodi:nodetypes="cccccccccccccccccccccc" />
  <path
     id="path1390"
     style="display:inline;fill:#000000;stroke:none;stroke-width:0.264583px;stroke-linecap:butt;stroke-linejoin:miter;stroke-opacity:1"
     d="m 25.13542,58.208339 -1.322917,1.322917 v 11.90625 H 37.04167 L 38.364587,70.11459 V 68.791673 H 26.458337 V 62.17709 l 1.322916,-1.322917 h 14.552084 v 7.9375 h 1.322917 l 1.322917,-1.322917 V 58.208339 Z M 42.333337,68.791673 39.687504,66.14584 h -3.96875 l 2.645833,2.645833 2.645833,2.645833 h 3.968751 z"
     inkscape:label="Q" />
  <path
     id="path58-9"
     style="display:inline;fill:#000000;stroke:none;stroke-width:0.264583px;stroke-linecap:butt;stroke-linejoin:miter;stroke-opacity:1"
     inkscape:label="P"
     d="M 1.32292,58.208339 0,59.531256 v 11.90625 H 1.32292 L 2.64584,70.11459 V 67.468756 L 3.96875,66.14584 h 15.875 l 1.32292,-1.322917 v -6.614584 z m 2.64583,2.645834 h 14.55209 v 1.322917 l -1.32292,1.322916 H 2.64584 V 62.17709 Z"
     sodipodi:nodetypes="cccccccccccccccccc" />
  <path
     id="path1313"
     style="display:inline;fill:#000000;stroke:none;stroke-width:0.264583px;stroke-linecap:butt;stroke-linejoin:miter;stroke-opacity:1"
     inkscape:label="O"
     d="m 358.51045,39.687506 -1.32292,1.322916 v 11.906251 h 19.84375 l 1.32292,-1.322917 v -11.90625 z m 2.64583,2.645833 h 14.55209 v 6.614584 l -1.32292,1.322916 h -14.55208 v -6.614583 z"
     sodipodi:nodetypes="cccccccccccccc" />
  <path
     id="path1313-0"
     style="display:inline;fill:#000000;stroke:none;stroke-width:0.264583px;stroke-linecap:butt;stroke-linejoin:miter;stroke-opacity:1"
     inkscape:label="O"
     d="m 358.51045,76.729172 -1.32292,1.322916 v 11.906251 h 19.84375 l 1.32292,-1.322917 v -11.90625 z m 2.64583,2.645833 h 14.55209 v 6.614584 l -1.32292,1.322916 h -14.55208 v -6.614583 z"
     sodipodi:nodetypes="cccccccccccccc" />
  <path
     id="path1313-4"
     style="display:inline;fill:#000000;stroke:none;stroke-width:0.264583px;stroke-linecap:butt;stroke-linejoin:miter;stroke-opacity:1"
     inkscape:label="O"
     d="M 1.32292,21.166671 0,22.489587 v 11.906258 h 1.32292 13.22917 5.29166 l 1.32292,-1.322924 V 21.166671 H 19.84375 6.61459 Z m 2.64583,2.645833 h 1.32292 l 6.94531,7.9375 H 2.64584 v -6.614583 z m 4.96094,0 h 9.59115 v 6.614583 l -1.32292,1.322917 h -1.32291 z" />
  <path
     id="path12"
     style="display:none;fill:#000000;stroke:none;stroke-width:0.264583px;stroke-linecap:butt;stroke-linejoin:miter;stroke-opacity:1"
     d="m 48.947928,89.958339 -1.322917,1.322917 v 11.906254 h 1.322917 l 1.322917,-1.32292 10e-7,-9.260415 h 2.645833 l 6.614584,7.937505 1.322917,2.64583 h 5.291667 v -2.64583 h -2.645834 v 0 L 52.916679,92.604175 v -2.645833 l -2.645834,-3e-6 z m 17.197919,13.229171 h 1.322916 l 1.322916,-1.32292 V 89.958339 h -1.322917 l -1.322917,1.322917 z"
     inkscape:label="N"
     sodipodi:nodetypes="cccccccccccccccccccccccc" />
  <path
     id="path1466-9"
     style="display:inline;fill:#000000;stroke:none;stroke-width:0.264583px;stroke-linecap:butt;stroke-linejoin:miter;stroke-opacity:1"
     d="m 329.40628,89.958356 1.32292,-1.32292 V 76.72919 l -7.9375,-1.9e-5 -1.32291,1.322917 v -1.322917 h -7.93751 l -1.32291,1.322917 0,-1.322917 -1.32293,-0.03978 -1.32291,1.322906 v 11.94605 h 1.32291 l 1.32292,-1.32292 10e-6,-9.260421 1.32291,-0.03978 5.29167,0.03978 v 10.54355 h 1.32291 l 1.32292,-1.322907 v -9.220642 h 6.61458 v 10.58334 z"
     inkscape:label="M"
     sodipodi:nodetypes="cccccccccccccccccccccccc" />
  <path
     id="path1466-9-8"
     style="display:inline;fill:#000000;stroke:none;stroke-width:0.264583px;stroke-linecap:butt;stroke-linejoin:miter;stroke-opacity:1"
     d="m 168.01044,95.249972 -1.32292,1.32292 v 11.906248 l 7.9375,2e-5 1.32291,-1.32292 v 1.32292 h 7.93751 l 1.32291,-1.32292 v 1.32292 l 1.32293,0.0398 1.32291,-1.32291 V 95.250002 h -1.32291 l -1.32292,1.32292 -1e-5,9.260418 -1.32291,0.0398 -5.29167,-0.0398 V 95.289792 h -1.32291 l -1.32292,1.32291 v 9.220638 h -6.61458 V 95.250002 Z"
     inkscape:label="M"
     sodipodi:nodetypes="cccccccccccccccccccccccc" />
  <path
     id="path1466-9-4"
     style="display:inline;fill:#000000;stroke:none;stroke-width:0.264583px;stroke-linecap:butt;stroke-linejoin:miter;stroke-opacity:1"
     d="m 329.40628,52.956467 1.32292,-1.32292 V 39.727301 h -9.26042 l -1.32292,1.322916 v -1.322916 l -9.26042,-0.0398 -1.32291,1.322906 v 11.94605 h 1.32291 l 1.32292,-1.32292 v -7.977284 l 1.32292,-1.322916 5.29167,0.03978 v 10.543549 h 1.32291 l 1.32292,-1.322907 v -9.220642 h 6.61458 v 10.58334 z"
     inkscape:label="M"
     sodipodi:nodetypes="ccccccccccccccccccccc" />
  <path
     id="path1293"
     style="display:inline;fill:#000000;fill-opacity:1;stroke:none;stroke-width:0.264583px;stroke-linecap:butt;stroke-linejoin:miter;stroke-opacity:1"
     d="m 287.07293,39.687505 -1.32291,1.322917 v 11.90625 h 19.84375 l 1.32291,-1.322916 V 50.270839 H 288.39585 V 39.687505 Z"
     sodipodi:nodetypes="ccccccccc"
     inkscape:label="L" />
  <path
     id="path1450"
     style="display:inline;fill:#000000;fill-opacity:1;stroke:none;stroke-width:0.264583px;stroke-linecap:butt;stroke-linejoin:miter;stroke-opacity:1"
     d="m 263.26043,39.687505 -1.32291,1.322917 v 11.90625 h 1.32291 l 1.32292,-1.322917 v -3.96875 h 9.26042 l 5.29166,5.251876 h 3.96876 l -7.89771,-7.897709 5.25187,-5.291667 h -3.96875 l -5.29167,5.291667 h -6.61458 v -5.291667 z"
     sodipodi:nodetypes="cccccccccccccccc"
     inkscape:label="K" />
  <path
     id="path1450-4"
     style="display:inline;fill:#000000;fill-opacity:1;stroke:none;stroke-width:0.264583px;stroke-linecap:butt;stroke-linejoin:miter;stroke-opacity:1"
     d="m 263.26044,76.729172 -1.32291,1.322917 v 11.90625 h 1.32291 l 1.32292,-1.322917 v -3.96875 h 9.26042 l 5.29166,5.251876 h 3.96876 l -7.89771,-7.897709 5.25187,-5.291667 h -3.96875 l -5.29167,5.291667 h -6.61458 v -5.291667 z"
     sodipodi:nodetypes="cccccccccccccccc"
     inkscape:label="K" />
  <path
     style="display:inline;fill:#000000;stroke:none;stroke-width:0.264583px;stroke-linecap:butt;stroke-linejoin:miter;stroke-opacity:1"
     d="m 259.29168,39.687501 v 1.322917 l -1.32291,1.322916 -1.32292,0.0396 v 9.244445 l -1.32292,1.299294 h -17.19791 v -3.96875 l 1.32291,-1.322922 h 1.32292 v 2.645833 h 11.90625 l 1.32292,-1.322917 v -6.614579 h -15.875 v -1.32292 l 1.32291,-1.322917 z"
     id="path1291"
     sodipodi:nodetypes="cccccccccccccccccc"
     inkscape:label="J" />
  <path
     style="display:inline;fill:#000000;fill-opacity:1;stroke:none;stroke-width:0.264583px;stroke-linecap:butt;stroke-linejoin:miter;stroke-opacity:1"
     d="m 215.63544,39.687505 -1.32292,1.322917 0,1.322916 h 9.26041 v 6.614584 l -1.32291,1.322916 h -6.61458 l -1.32292,1.322917 0,1.322919 h 19.84374 l 1.32292,-1.322919 v -1.322917 h -9.26042 v -6.614583 l 1.32292,-1.322917 6.61458,1e-6 1.32292,-1.322916 v -1.322918 z"
     id="path1287"
     sodipodi:nodetypes="ccccccccccccccccccc"
     inkscape:label="I" />
  <path
     style="display:inline;fill:#000000;fill-opacity:1;stroke:none;stroke-width:0.264583px;stroke-linecap:butt;stroke-linejoin:miter;stroke-opacity:1"
     d="m 190.50002,41.010423 0,11.906251 1.32291,-10e-7 1.32292,-1.322917 v -2.645833 l 1.32291,-1.322917 14.55209,-10e-7 v 5.291667 l 1.32291,5e-6 1.32292,-1.322921 V 39.687505 l -1.32292,2e-6 -1.32291,1.322916 v 2.645833 l -1.27567,1.322916 h -14.59933 v -5.291667 l -1.32292,2e-6 z"
     id="path1229"
     sodipodi:nodetypes="ccccccccccccccccccc"
     inkscape:label="H" />
  <path
     style="display:inline;fill:#000000;fill-opacity:1;stroke:none;stroke-width:0.264583px;stroke-linecap:butt;stroke-linejoin:miter;stroke-opacity:1"
     d="m 179.91668,46.2625 0,1.362503 h 5.29166 l 0,1.322918 -1.3229,1.322918 -14.5521,-3e-6 0,-6.614582 1.32292,-1.322917 h 15.875 l 1.32292,-1.322917 0,-1.322917 -19.84375,2e-6 -1.32291,1.322916 V 52.91667 h 19.87637 l 1.2903,-1.322915 0,-6.654171 h -6.61459 z"
     id="path1227"
     sodipodi:nodetypes="ccccccccccccccccccc"
     inkscape:label="G" />
  <path
     style="display:inline;fill:#000000;stroke:none;stroke-width:0.264583px;stroke-linecap:butt;stroke-linejoin:miter;stroke-opacity:1"
     d="m 162.71876,47.625001 h -15.875 l -1.32291,1.322917 v 2.645833 l -1.32292,1.322921 h -1.32292 V 41.010418 l 1.32292,-1.322916 h 19.84375 l 0,1.32292 -1.32292,1.322916 h -15.875 l -1.32291,1.322917 v 1.322917 h 18.52083 v 1.322909 l -1.32292,1.322917 z"
     id="path151-7"
     sodipodi:nodetypes="cccccccccccccccccc"
     inkscape:label="F" />
  <path
     style="display:inline;fill:#000000;stroke:none;stroke-width:0.264583px;stroke-linecap:butt;stroke-linejoin:miter;stroke-opacity:1"
     d="m 95.250012,52.916667 -10e-7,-11.906246 1.322917,-1.322916 19.843752,3e-6 0,11.866652 -1.32292,1.362512 -14.55208,3e-6 0,-1.362514 1.32291,-1.322917 10.58334,-10e-7 1.32291,-1.322916 10e-6,-6.574989 H 99.218761 l -1.322917,1.322917 -10e-7,7.897906 -1.322915,1.362511 z"
     id="path1478"
     sodipodi:nodetypes="ccccccccccccccccc"
     inkscape:label="D" />
  <path
     id="path44-3"
     style="display:inline;fill:#000000;stroke:none;stroke-width:0.264583px;stroke-linecap:butt;stroke-linejoin:miter;stroke-opacity:1"
     d="m 72.760427,39.687506 -1.322917,1.322916 v 11.906251 h 19.843751 l 1.322916,-1.322917 v -3.96875 h -1.322916 l -1.322917,1.322917 v 1.322916 H 74.083343 v -6.614583 l 1.322917,-1.322917 h 14.552084 v 2.645833 h 1.380794 l 1.265039,-1.322916 v -3.96875 z"
     inkscape:label="C" />
  <path
     id="path58-4-0"
     style="display:inline;fill:#000000;stroke:none;stroke-width:0.264583px;stroke-linecap:butt;stroke-linejoin:miter;stroke-opacity:1"
     d="m 48.947929,39.687505 -1.322918,1.322916 v 11.906251 h 19.843752 l 1.322917,-1.322917 v -6.614584 h -2.645834 l 0.01033,-5.291666 z m 2.645833,2.645833 h 11.906251 v 1.362708 l -1.322917,1.283125 h -11.90625 v -1.322916 z m 0,5.291667 h 14.552084 v 1.322917 l -1.322917,1.322916 H 50.270846 v -1.322916 z"
     sodipodi:nodetypes="ccccccccccccccccccccccc"
     inkscape:label="B" />
  <path
     id="path58-4"
     style="display:inline;fill:#000000;stroke:none;stroke-width:0.264583px;stroke-linecap:butt;stroke-linejoin:miter;stroke-opacity:1"
     d="m 25.135424,39.687505 -1.322918,1.322913 v 11.90625 h 1.322917 l 1.322917,-1.322917 v -2.645833 l 1.322917,-1.322917 h 14.552084 v 5.291667 h 1.322916 l 1.322918,-1.322916 v -11.90625 z m 2.645833,2.645829 h 14.552084 v 1.322918 l -1.322917,1.322915 H 26.45834 l 1e-6,-1.322915 z"
     sodipodi:nodetypes="cccccccccccccccccccc"
     inkscape:label="A" />
  <path
     style="display:none;fill:#00ff00;stroke:none;stroke-width:0.264583px;stroke-linecap:butt;stroke-linejoin:miter;stroke-opacity:1"
     d="m 26.458341,60.854173 -1.322917,1.322917 v 1.322913 h 14.552084 l 1.322916,-1.322917 v -1.322913 z"
     id="path9"
     inkscape:label="TopNegative" />
  <path
     style="display:none;fill:#008000;stroke:none;stroke-width:0.264583px;stroke-linecap:butt;stroke-linejoin:miter;stroke-opacity:1"
     d="m 26.458341,60.854173 -1.322918,1.322917 v 1.322913 h 11.906253 l 1.322916,-1.322917 v -1.322913 z"
     id="path9-4"
     inkscape:label="TopNegative"
     sodipodi:nodetypes="ccccccc" />
  <path
     style="display:none;fill:#00ff00;stroke:none;stroke-width:0.264583px;stroke-linecap:butt;stroke-linejoin:miter;stroke-opacity:1"
     d="m 26.458341,66.145841 -1.322917,1.322917 v 1.322913 h 14.552084 l 1.322916,-1.322917 v -1.322913 z"
     id="path9-0"
     inkscape:label="BottomNegative" />
  <path
     id="path17"
     style="display:inline;fill:#000000;stroke:none;stroke-width:0.264583px;stroke-linecap:butt;stroke-linejoin:miter;stroke-opacity:1"
     d="m 34.395841,21.166671 -1.322916,1.32292 v 11.906247 h 1.322916 l 1.322917,-1.32292 v -10.583327 -1.32292 z" />
  <path
     id="path17-4"
     style="display:inline;fill:#000000;stroke:none;stroke-width:0.264583px;stroke-linecap:butt;stroke-linejoin:miter;stroke-opacity:1"
     d="m 296.33336,76.729175 -1.32291,1.32292 v 11.906247 h 1.32291 l 1.32292,-1.32292 v -10.583327 -1.32292 z" />
  <path
     id="path17-0"
     style="display:inline;fill:#000000;stroke:none;stroke-width:0.264583px;stroke-linecap:butt;stroke-linejoin:miter;stroke-opacity:1"
     d="m 296.33335,92.604173 -1.32291,1.32292 v 17.197917 h 1.32291 l 1.32292,-1.32292 v -15.874997 -1.32292 z"
     sodipodi:nodetypes="cccccccc" />
  <path
     style="display:inline;fill:#000000;stroke:none;stroke-width:0.264583px;stroke-linecap:butt;stroke-linejoin:miter;stroke-opacity:1"
     d="m 71.437515,23.812511 v -1.32292 l 1.322917,-1.32291 h 19.84375 l -2e-6,6.61458 -1.322917,1.322917 h 1.322917 v 3.96875 l -1.322917,1.32292 H 71.43751 v -1.32292 l 1.322922,-1.32292 h 17.197917 v -2.64583 l -13.229169,10e-6 v -1.322917 l 1.322916,-1.32292 11.906253,-10e-6 v -2.64583 z"
     id="path1"
     sodipodi:nodetypes="cccccccccccccccccccc" />
  <path
     style="display:inline;fill:#000000;stroke:none;stroke-width:0.264583px;stroke-linecap:butt;stroke-linejoin:miter;stroke-opacity:1"
     d="m 96.572928,21.146871 -1.322917,1.32292 -5e-6,6.61458 h 18.520844 v 5.291667 h 1.32291 l 1.32292,-1.322917 v -11.90625 h -2.64583 v 3.96875 l -1.32292,1.32292 H 97.895845 v -5.29167 z"
     id="path11" />
  <path
     style="display:inline;fill:#000000;stroke:none;stroke-width:0.264583px;stroke-linecap:butt;stroke-linejoin:miter;stroke-opacity:1"
     d="m 140.22918,21.146871 0,1.32292 -1.32292,1.32291 h -17.19791 v 2.64584 h 17.19791 l 1.32292,1.32291 v 5.29167 l -1.32292,1.322917 H 119.0625 l 1e-5,-1.322917 1.32292,-1.32292 h 1.32291 v 0 h 14.64658 l 1.22842,-1.32291 v -1.32292 h -18.52083 v -6.61458 l 1.32292,-1.32292 z"
     id="path13"
     sodipodi:nodetypes="ccccccccccccccccccccc" />
  <path
     id="path14"
     style="display:inline;fill:#000000;stroke:none;stroke-width:0.264583px;stroke-linecap:butt;stroke-linejoin:miter;stroke-opacity:1"
     d="m 144.19793,21.146871 -1.32291,1.32292 v 11.906247 h 19.84374 l 1.32292,-1.322907 v -5.29167 l -1.32292,-1.32292 h -17.19791 v -1.32292 l 1.32292,-1.32291 h 15.87499 l 1.32292,-1.32292 v -1.32292 z m 2.64584,7.93751 h 14.55208 v 1.32291 l -1.32292,1.32292 h -14.55208 v -1.32292 z" />
  <path
     style="display:none;fill:#000000;stroke:none;stroke-width:0.264583px;stroke-linecap:butt;stroke-linejoin:miter;stroke-opacity:1"
     d="m 168.01043,23.792701 -1.32291,-1.32291 v -1.32292 h 21.16666 v 11.90625 l -1.32291,1.322917 h -1.32292 V 23.792701 Z"
     id="path15" />
  <path
     id="path16"
     style="display:inline;fill:#000000;stroke:none;stroke-width:0.264583px;stroke-linecap:butt;stroke-linejoin:miter;stroke-opacity:1"
     d="m 191.82293,21.146861 -1.32292,1.32292 v 3.96875 h 1.32292 l -1.32292,1.32292 v 6.614577 h 19.84375 l 1.32292,-1.322907 v -3.96875 h -1.32292 l 1.32292,-1.32292 v -6.61459 z m 2.64583,2.64584 h 14.55209 v 1.32291 l -1.32292,1.32292 h -14.55208 v -1.32292 z m 0,5.29167 h 14.55209 v 1.32291 l -1.32292,1.32292 h -14.55208 v -1.32292 z" />
  <path
     id="path19"
     style="display:inline;fill:#000000;stroke:none;stroke-width:0.264583px;stroke-linecap:butt;stroke-linejoin:miter;stroke-opacity:1"
     d="m 215.63543,21.146861 -1.32292,1.32292 v 6.61459 h 18.52084 v 5.291657 h 1.32291 l 1.32292,-1.322907 v -11.90626 z m 2.64583,2.64584 h 14.55209 v 1.32291 l -1.32292,1.32292 h -14.55208 v -1.32292 z" />
  <path
     id="path22"
     style="display:inline;fill:#000000;stroke:none;stroke-width:0.264583px;stroke-linecap:butt;stroke-linejoin:miter;stroke-opacity:1"
     d="M 34.395846,1.4340634e-6 33.07293,1.3229114 l -10e-7,9.2604246 1.322917,-10e-7 1.322917,-1.3229186 V 1.4340634e-6 Z M 34.395847,10.583335 33.07293,11.906252 v 3.968744 h 1.322916 l 1.322917,-1.32291 10e-7,-3.968751 z"
     inkscape:label="!"
     sodipodi:nodetypes="cccccccccccccc" />
  <path
     id="path24"
     style="display:inline;fill:#000000;stroke:none;stroke-width:0.264583px;stroke-linecap:butt;stroke-linejoin:miter;stroke-opacity:1"
     d="m 78.052098,2.645841 -1.322917,1.32291 v 1.32292 h -3.96875 l -1.322917,1.32292 v 1.32291 h 5.291667 v 2.64584 h -3.96875 l -1.322917,1.32291 v 1.32292 h 5.291667 v 2.64583 h 1.322917 l 1.322916,-1.32291 v -1.32292 h 5.291667 v 2.64583 h 1.322917 l 1.322917,-1.32291 v -1.32292 h 3.96875 l 1.322916,-1.32292 v -1.32291 h -5.291666 v -2.64584 h 3.96875 l 1.322916,-1.32291 v -1.32292 h -5.291666 v -2.64583 h -1.322917 l -1.322917,1.32291 v 1.32292 h -5.291667 v -2.64583 z m 1.322916,5.29166 h 0.413412 0.909505 3.96875 v 2.64584 h -5.291667 z"
     inkscape:label="#" />
  <path
     style="display:inline;fill:#1a1a1a;stroke:none;stroke-width:0.264583px;stroke-linecap:butt;stroke-linejoin:miter;stroke-opacity:1"
     d="m 2.64583,51.593776 -1.32291,1.32292 H 0 v -11.90625 l 1.32292,-1.32294 19.84375,2e-5 v 11.90625 l -1.32291,1.3625 -6.61459,-0.0396 v -5.29167 H 9.26042 l -1.32292,1.32292 v 1.32291 h 5.29167 v 1.32292 l -1.32292,1.32292 H 5.29167 v -6.61459 l 1.32291,-1.32291 H 15.875 v 5.29166 h 1.32292 l 1.32292,-1.32291 v -6.61459 H 3.96875 l -1.32292,1.32292 z"
     id="path2"
     inkscape:label="@" />
  <path
     id="path12-1"
     style="display:none;fill:#000000;stroke:none;stroke-width:0.264583px;stroke-linecap:butt;stroke-linejoin:miter;stroke-opacity:1"
     d="m 191.82293,79.375007 -1.32291,1.322917 v 11.90625 h 1.32291 l 1.32292,-1.322916 V 80.697924 l 11.90625,11.90625 h 3.96875 L 195.79168,79.375007 h -2.64583 z m 17.19792,13.229167 h 1.32292 l 1.32291,-1.322916 V 79.375007 h -1.32291 l -1.32292,1.322917 z"
     inkscape:label="N" />
  <path
     style="display:inline;fill:#000000;stroke:none;stroke-width:0.264583px;stroke-linecap:butt;stroke-linejoin:miter;stroke-opacity:1"
     d="m 336.02085,51.593759 -1.32292,1.322914 h -1.32291 V 41.010426 l 1.32291,-1.322917 h 5.29167 l 9.26041,10.583334 h 2.64584 v -9.260417 l 1.32292,-1.322917 h 1.32292 v 11.90625 l -1.32292,1.322914 h -5.29167 l -9.26042,-10.583331 h -2.64583 z"
     id="path3"
     sodipodi:nodetypes="ccccccccccccccccc" />
  <path
     style="display:inline;fill:#000000;stroke:none;stroke-width:0.264583px;stroke-linecap:butt;stroke-linejoin:miter;stroke-opacity:1"
     d="m 137.58336,2.645835 h 1.32291 l 1.32292,-1.32291 V 5e-6 h -3.96875 l -14.55208,15.875004 h -1.32293 l -1.32292,1.32292 v 1.32292 l 3.96876,-10e-6 z"
     id="path3-4-4"
     sodipodi:nodetypes="ccccccccccc" />
  <path
     style="display:inline;fill:#000000;stroke:none;stroke-width:0.264583px;stroke-linecap:butt;stroke-linejoin:miter;stroke-opacity:1"
     d="m 345.28127,58.208343 h -2.64583 l -9.26042,9.26042 v 1.32291 h 2.64583 l 7.9375,-7.9375 7.9375,7.9375 v 0 h 2.64583 v -1.32291 z"
     id="path5"
     sodipodi:nodetypes="ccccccccccc" />
  <path
     style="display:inline;fill:#000000;stroke:none;stroke-width:0.264583px;stroke-linecap:butt;stroke-linejoin:miter;stroke-opacity:1"
     d="m 269.87503,100.54169 -1.32292,1.32291 v 1.32292 h 2.64584 l -10e-6,7.93751 h 3.96875 l 1.32292,-1.32292 v -1.32292 h -2.64584 V 95.25001 h 1.32292 l 1.32292,-1.32291 v -1.32292 h -3.96875 l -1.32292,1.32292 v 1.98438 l 10e-6,4.63021 z"
     id="path6"
     sodipodi:nodetypes="cccccccccccccccccc" />
  <path
     style="display:inline;fill:#000000;stroke:none;stroke-width:0.264583px;stroke-linecap:butt;stroke-linejoin:miter;stroke-opacity:1"
     d="m 322.79169,103.18751 1.32291,-1.32291 1e-5,-1.32292 h -2.64584 l 10e-6,-7.937504 h -3.96875 l -1.32292,1.32292 v 1.32292 h 2.64584 v 13.229174 h -1.32292 l -1.32292,1.32291 v 1.32292 h 3.96875 l 1.32292,-1.32292 -10e-6,-6.61459 z"
     id="path6-6"
     sodipodi:nodetypes="ccccccccccccccccc" />
  <path
     style="display:inline;fill:#000000;stroke:none;stroke-width:0.264583px;stroke-linecap:butt;stroke-linejoin:miter;stroke-opacity:1"
     d="m 276.48961,56.885433 -1.32292,1.32291 h -1.32292 v 13.22918 h 2.64584 v 1.32292 l -1.32292,1.32292 h -3.96875 v -17.19793 l 1.32292,-1.32292 h 3.96875 z"
     id="path23"
     sodipodi:nodetypes="cccccccccccc" />
  <path
     style="display:inline;fill:#000000;stroke:none;stroke-width:0.264583px;stroke-linecap:butt;stroke-linejoin:miter;stroke-opacity:1"
     d="m 316.1771,72.76042 1.32292,-1.32291 h 1.32292 V 58.20834 h -2.64584 v -1.32292 l 1.32292,-1.32292 h 3.96875 v 17.19792 l -1.32292,1.32292 h -3.96875 z"
     id="path23-8"
     sodipodi:nodetypes="cccccccccccc" />
  <path
     style="display:inline;fill:#000000;stroke:none;stroke-width:0.264583px;stroke-linecap:butt;stroke-linejoin:miter;stroke-opacity:1"
     d="m 202.40627,0 -2.64583,2.64583 V 15.875 l 2.64582,2.64584 h 2.64584 l 1.32291,-1.32292 V 15.875 h -2.64582 l -1.32292,-1.32291 V 3.96875 l 1.32292,-1.32292 h 2.64582 V 1.32291 L 205.0521,0 Z"
     id="path25"
     sodipodi:nodetypes="ccccccccccccccc" />
  <path
     style="display:inline;fill:#000000;stroke:none;stroke-width:0.264583px;stroke-linecap:butt;stroke-linejoin:miter;stroke-opacity:1"
     d="m 224.89585,1e-5 2.64584,2.64583 V 15.875 l -2.64583,2.64584 h -2.64584 l -1.32291,-1.32292 V 15.875 h 2.64583 l 1.32291,-1.32291 V 3.96876 l -1.32291,-1.32292 h -2.64583 V 1.32292 L 222.25002,1e-5 Z"
     id="path25-1"
     sodipodi:nodetypes="ccccccccccccccc" />
  <path
     style="display:inline;fill:#000000;stroke:none;stroke-width:0.264583px;stroke-linecap:butt;stroke-linejoin:miter;stroke-opacity:1"
     d="m 263.26045,7.937504 -1.32292,1.32291 v 1.32292 h 9.26042 v 5.29167 h 1.32291 l 1.32292,-1.32292 v -3.96875 h 7.9375 l 1.32292,-1.32292 v -1.32291 h -9.26042 v -5.29167 h -1.32292 l -1.32291,1.32292 v 3.96875 z"
     id="path26" />
  <path
     id="path29"
     style="display:inline;fill:#000000;stroke:none;stroke-width:0.264583px;stroke-linecap:butt;stroke-linejoin:miter;stroke-opacity:1"
     d="m 310.88544,23.812511 -1.32291,1.32291 v 1.32292 h 19.84375 l 1.32291,-1.32292 v -1.32291 z m 0,5.29166 -1.32291,1.32292 v 1.32292 h 19.84375 l 1.32291,-1.32292 v -1.32292 z" />
  <path
     style="display:inline;fill:#000000;stroke:none;stroke-width:0.264583px;stroke-linecap:butt;stroke-linejoin:miter;stroke-opacity:1"
     d="m 358.51044,71.437507 -1.32291,1.32291 v 1.32292 h 19.84375 l 1.32291,-1.32292 v -1.32291 z"
     id="path30-1" />
  <path
     style="display:inline;fill:#1a1a1a;stroke:none;stroke-width:0.264583px;stroke-linecap:butt;stroke-linejoin:miter;stroke-opacity:1"
     d="m 359.83336,25.135421 -1.32292,1.32291 h -1.32291 v -3.96875 l 1.32291,-1.32291 h 19.84375 l 10e-6,6.61458 -1.32292,1.32292 h -7.93751 v 0 l -1.32291,1.32292 h -1.32292 v -2.64584 l 1.32292,-1.32292 h 7.9375 v -2.64583 h -15.875 z"
     id="path31"
     sodipodi:nodetypes="cccccccccccccccccc" />
  <path
     style="display:inline;fill:#1a1a1a;stroke:none;stroke-width:0.264583px;stroke-linecap:butt;stroke-linejoin:miter;stroke-opacity:1"
     d="m 367.77086,31.750001 -1.32292,1.32292 v 1.32292 h 1.32292 l 1.32291,-1.32292 v -1.32292 z"
     id="path32" />
  <path
     style="display:inline;fill:#000000;stroke:none;stroke-width:0.264583px;stroke-linecap:butt;stroke-linejoin:miter;stroke-opacity:1"
     d="m 14.55209,74.083342 -1.32291,1.322916 v 0 l -3.96875,-2.645833 1.32291,-1.322919 1.32292,2e-6 z"
     id="path44"
     sodipodi:nodetypes="ccccccc" />
  <path
     id="path46"
     style="display:inline;fill:#000000;stroke:none;stroke-width:0.264583px;stroke-linecap:butt;stroke-linejoin:miter;stroke-opacity:1"
     d="m 48.947929,74.083335 -1.322917,1.322917 v 14.552084 h 19.843751 l 1.322917,-1.322916 10e-7,-11.906249 H 50.270847 l -1e-6,-2.645836 z m 2.645835,5.29167 h 14.552083 l -10e-7,6.614581 -1.322916,1.322917 H 50.270846 l 1e-6,-6.614582 z"
     sodipodi:nodetypes="cccccccccccccccc" />
  <path
     style="display:inline;fill:#000000;stroke:none;stroke-width:0.264583px;stroke-linecap:butt;stroke-linejoin:miter;stroke-opacity:1"
     d="M 92.604183,76.729172 H 72.760432 l -1.322917,1.322917 4e-6,11.906251 H 91.28127 l 1.322917,-1.322917 V 87.312507 H 74.083353 l -4e-6,-7.937502 h 17.197917 l 1.322917,-1.322916 z"
     id="path47"
     sodipodi:nodetypes="cccccccccccc" />
  <path
     id="path48"
     style="display:inline;fill:#000000;stroke:none;stroke-width:0.264583px;stroke-linecap:butt;stroke-linejoin:miter;stroke-opacity:1"
     d="m 115.09376,74.083335 -1.32292,1.322917 10e-6,1.322919 H 96.572934 l -1.322916,1.322917 -3e-6,11.906248 H 109.8021 l 1.32292,-1.322917 v -1.322917 h 2.64583 v 2.645835 l 1.32291,-10e-7 1.32292,-1.322916 V 74.083335 Z m -15.874992,5.29167 h 14.552082 v 7.937497 h -3.96875 l -11.906252,1e-6 3e-6,-6.614582 z"
     sodipodi:nodetypes="cccccccccccccccccccccc" />
  <path
     style="display:inline;fill:#000000;stroke:none;stroke-width:0.264583px;stroke-linecap:butt;stroke-linejoin:miter;stroke-opacity:1"
     d="m 140.22918,41.010427 -1.32292,1.322916 h -15.875 l -1.32291,1.322917 v 1.322917 h 18.52083 v 1.322917 l -1.32292,1.322916 h -15.875 l -1.32291,1.322917 v 1.322917 l 18.52083,-0.03959 0,1.362501 -1.32292,1.322917 h -19.84375 l 0,-11.90625 1.32292,-1.322917 h 19.84375 z"
     id="path50" />
  <path
     id="path50-6"
     style="display:inline;fill:#000000;stroke:none;stroke-width:0.264583px;stroke-linecap:butt;stroke-linejoin:miter;stroke-opacity:1"
     d="m 120.38544,76.729172 -1.32292,1.322916 v 11.90625 h 19.84375 l 1.32292,-1.322916 v -1.362708 l -18.52084,0.03979 v -1.322917 l 1.32292,-1.322916 h 14.55208 1.32292 l 1.32292,-1.322917 v -1.322917 -3.96875 -1.322916 h -2.64584 z m 2.64583,2.645833 h 14.55208 v 1.322917 l -1.32291,1.322916 h -14.55209 v -1.322916 z" />
  <path
     style="display:inline;fill:#000000;stroke:none;stroke-width:0.264583px;stroke-linecap:butt;stroke-linejoin:miter;stroke-opacity:1"
     d="m 158.75003,3.9687646 -1.32292,1.322916 -5.29167,-1.19e-5 -1.32291,1.322917 v 1.322917 l 7.9375,1.19e-5 v 1.322917 l -1.32292,1.3229154 -5.29167,-1.2e-5 -1.32291,1.322917 v 1.322917 l 7.9375,-0.03958 v 1.362501 l -1.32292,1.322917 -9.26042,-1.2e-5 V 3.9687477 l 1.32292,-1.322917 9.26042,1.19e-5 z"
     id="path50-2"
     sodipodi:nodetypes="ccccccccccccccccccc" />
  <path
     style="display:inline;fill:#000000;stroke:none;stroke-width:0.264583px;stroke-linecap:butt;stroke-linejoin:miter;stroke-opacity:1"
     d="m 44.979179,76.729171 h -1.322917 l -1.322917,1.322917 v 11.90625 h 1.322917 l 1.322917,-1.322917 z"
     id="path51"
     sodipodi:nodetypes="ccccccc" />
  <path
     style="display:inline;fill:#000000;stroke:none;stroke-width:0.264583px;stroke-linecap:butt;stroke-linejoin:miter;stroke-opacity:1"
     d="m 41.01043,79.375005 1.322916,-1.322917 V 76.729171 H 25.13543 l -1.322918,1.322917 -1e-6,11.90625 h 14.552085 l 1.322916,-1.322917 V 87.312505 H 26.458345 l 10e-7,-6.614583 1.322917,-1.322917 z"
     id="path52"
     sodipodi:nodetypes="ccccccccccccc" />
  <path
     style="display:inline;fill:#000000;stroke:none;stroke-width:0.264583px;stroke-linecap:butt;stroke-linejoin:miter;stroke-opacity:1"
     d="m 44.979179,95.250005 h -1.322917 l -1.322917,1.322917 10e-7,14.552078 h 1.322917 l 1.322917,-1.32291 z"
     id="path51-9"
     sodipodi:nodetypes="ccccccc" />
  <path
     style="display:inline;fill:#000000;stroke:none;stroke-width:0.264583px;stroke-linecap:butt;stroke-linejoin:miter;stroke-opacity:1"
     d="m 41.01043,97.895839 1.322916,-1.322917 V 95.250005 H 25.13543 l -1.322918,1.322917 -1e-6,11.906248 17.197919,0 1.322916,-1.32291 v -1.32292 l -15.875001,0 10e-7,-6.614584 1.322917,-1.322917 z"
     id="path52-1"
     sodipodi:nodetypes="ccccccccccccc" />
  <circle
     id="path56"
     style="display:inline;fill:#000000;stroke:#000000;stroke-width:0.264583"
     cx="168.04573"
     cy="89.37043"
     r="0.008900011" />
  <path
     style="display:inline;fill:#000000;stroke:none;stroke-width:0.264583px;stroke-linecap:butt;stroke-linejoin:miter;stroke-opacity:1"
     d="m 145.52085,84.666671 v 5.291667 h 1.32292 l 1.32292,-1.322917 h 1e-5 l -1e-5,-3.968749 11.90625,-1e-6 1.32292,-1.322916 v -1.322917 l -13.22917,0 1e-5,-1.322917 1.32291,-1.322917 13.22917,0 1.32291,-1.322916 v -1.322917 l -17.19791,0 -1.32292,1.322917 -1e-5,3.96875 h -2.64584 v 1.322917 l 1.32293,1.322917 z"
     id="path58"
     sodipodi:nodetypes="cccccccccccccccccccccc" />
  <path
     id="path59"
     style="display:inline;fill:#000000;stroke:none;stroke-width:0.264583px;stroke-linecap:butt;stroke-linejoin:miter;stroke-opacity:1"
     d="m 168.01043,76.729171 -1.32291,1.322917 v 6.614584 h 18.52083 l 0,2.645833 h -17.19792 l -1.32292,1.322917 v 1.322916 h 19.84376 l 1.32291,-1.322916 0,-11.906251 z m 2.64584,2.645834 h 14.55208 v 1.322917 l -1.32292,1.322916 h -14.55208 v -1.322916 z"
     sodipodi:nodetypes="ccccccccccccccccccc" />
  <path
     id="path81"
     style="fill:#000000;stroke:none;stroke-width:0.264583px;stroke-linecap:butt;stroke-linejoin:miter;stroke-opacity:1"
     d="m 334.69794,99.218757 -1.32292,1.322913 v 3.96875 h 1.32292 l 1.32291,-1.32291 v -1.32292 h 6.61459 v 1.32292 l 1.32291,1.32291 h 7.9375 1.32292 l 1.32292,-1.32291 v -3.968753 h -1.32292 l -1.32292,1.322913 v 1.32292 h -6.61458 v -1.32292 l -1.32292,-1.322913 h -7.9375 z" />
  <path
     id="path86"
     style="fill:#000000;stroke:none;stroke-width:0.264583px;stroke-linecap:butt;stroke-linejoin:miter;stroke-opacity:1"
     d="m 120.38543,2.645839 -1.32292,1.322917 v 6.614583 h 6.61459 l 1.32291,-1.322916 V 2.645839 Z m 1.32292,2.645832 2.64583,1e-6 v 2.645833 h -1.32291 v 0 h -1.32292 z"
     sodipodi:nodetypes="cccccccccccccc" />
  <path
     id="path86-5"
     style="fill:#000000;stroke:none;stroke-width:0.264583px;stroke-linecap:butt;stroke-linejoin:miter;stroke-opacity:1"
     d="m 133.6146,7.937506 -1.32292,1.322916 v 6.614583 h 6.61459 l 1.32291,-1.322916 V 7.937506 Z m 1.32292,2.645832 h 2.64583 v 2.645834 h -1.32292 -1.32291 v -1.322916 z"
     sodipodi:nodetypes="cccccccccccccc" />
  <path
     id="path86-5-4-2"
     style="fill:#000000;stroke:none;stroke-width:0.264583px;stroke-linecap:butt;stroke-linejoin:miter;stroke-opacity:1"
     d="M 248.70836,1.8333776e-6 247.38545,1.3229184 v 1.3229164 l -1.32292,1.322917 h -1.32292 l -1.32291,1.322917 v 1.322916 h 2.64583 v 1.322917 h 1.32292 v 2.6458332 h 1.32291 l 1.32292,-1.3229162 v -1.322917 l 1.32292,-1.322917 h 1.32291 l 1.32292,-1.322916 v -1.322917 h -2.64583 v -1.322917 h -1.32292 V 1.8333776e-6 Z" />
  <path
     style="fill:#000000;stroke:none;stroke-width:0.264583px;stroke-linecap:butt;stroke-linejoin:miter;stroke-opacity:1"
     d="m 178.59377,3.968754 -1.32292,1.322914 -1.32291,3e-6 V 1.32292 L 177.27085,4e-6 l 1.32292,5e-6 z"
     id="path87" />
  <path
     style="fill:#000000;stroke:none;stroke-width:0.264583px;stroke-linecap:butt;stroke-linejoin:miter;stroke-opacity:1"
     d="m 56.885426,3.968754 -1.32292,1.322914 -1.32291,3e-6 V 1.32292 L 55.562506,4e-6 l 1.32292,5e-6 z"
     id="path87-3" />
  <path
     style="fill:#000000;stroke:none;stroke-width:0.264583px;stroke-linecap:butt;stroke-linejoin:miter;stroke-opacity:1"
     d="m 297.65628,17.197919 -1.32292,1.322914 -1.32291,3e-6 v -3.968751 l 1.32291,-1.322916 1.32292,5e-6 z"
     id="path87-3-0" />
  <path
     style="fill:#000000;stroke:none;stroke-width:0.264583px;stroke-linecap:butt;stroke-linejoin:miter;stroke-opacity:1"
     d="m 345.28129,15.875002 -1.32292,-8e-6 -1.32291,3e-6 -1e-5,-1.322911 0,-1.322917 2.64584,0 z"
     id="path87-3-0-6"
     sodipodi:nodetypes="ccccccc" />
  <path
     style="fill:#000000;stroke:none;stroke-width:0.264583px;stroke-linecap:butt;stroke-linejoin:miter;stroke-opacity:1"
     d="m 250.03128,31.750003 -1.32292,-3e-6 -1.32291,3e-6 -1e-5,-1.322914 1.32292,-1.322922 1.32292,5e-6 z"
     id="path87-3-0-6-7"
     sodipodi:nodetypes="ccccccc" />
  <path
     style="fill:#000000;stroke:none;stroke-width:0.264583px;stroke-linecap:butt;stroke-linejoin:miter;stroke-opacity:1"
     d="m 250.03128,26.458336 -1.32292,0 -1.32291,3e-6 v -1.322917 l 1.32292,-1.322922 1.32292,5e-6 z"
     id="path87-3-0-6-7-4"
     sodipodi:nodetypes="ccccccc" />
  <path
     style="fill:#000000;stroke:none;stroke-width:0.264583px;stroke-linecap:butt;stroke-linejoin:miter;stroke-opacity:1"
     d="m 273.84378,31.750003 -1.32292,1.322916 h -1.32291 l -2e-5,-2.645832 1.32292,-1.322922 1.32292,5e-6 z"
     id="path87-3-0-6-7-9"
     sodipodi:nodetypes="ccccccc" />
  <path
     style="fill:#000000;stroke:none;stroke-width:0.264583px;stroke-linecap:butt;stroke-linejoin:miter;stroke-opacity:1"
     d="m 273.84378,26.458336 -1.32293,-2e-6 -1.32291,3e-6 V 25.13542 l 1.32292,-1.322922 1.32292,5e-6 z"
     id="path87-3-0-6-7-4-6"
     sodipodi:nodetypes="ccccccc" />
  <path
     style="fill:#000000;stroke:none;stroke-width:0.264583px;stroke-linecap:butt;stroke-linejoin:miter;stroke-opacity:1"
     d="m 62.177093,3.968754 -1.32292,1.322914 -1.32291,3e-6 V 1.32292 L 60.854173,4e-6 l 1.32292,5e-6 z"
     id="path87-5" />
  <path
     id="path90"
     style="fill:#000000;stroke:none;stroke-width:0.264583px;stroke-linecap:butt;stroke-linejoin:miter;stroke-opacity:1"
     d="m 166.6875,21.166667 v 1.322916 l 1.32292,1.322917 h 13.22916 l 6.61459,-2.645826 z M 181.23958,23.8125 170.65625,34.395833 H 174.625 L 185.20833,23.8125 Z m 3.96878,3e-6 2.64581,-2.645836 -6.61456,2.645836 z"
     sodipodi:nodetypes="ccccccccccccccc" />
  <path
     style="fill:#000000;stroke:none;stroke-width:0.264583px;stroke-linecap:butt;stroke-linejoin:miter;stroke-opacity:1"
     d="M 153.45835,1.6407255e-6 152.13543,1.3229183 v 1.3229168 h 2.64584 V 1.6407255e-6 Z"
     id="path97" />
  <path
     style="fill:#000000;stroke:none;stroke-width:0.264583px;stroke-linecap:butt;stroke-linejoin:miter;stroke-opacity:1"
     d="m 154.78127,17.197919 -1.32292,1.322915 h -1.32292 v -3.96875 h 2.64584 z"
     id="path98" />
  <path
     style="fill:none;stroke:#000000;stroke-width:0.264583px;stroke-linecap:butt;stroke-linejoin:miter;stroke-opacity:1"
     d="m 250.03128,3.9687518 h -1.32292 l -1.32291,1.3229167 v 1.3229166 h 1.32291 l 1.32292,-1.3229166 z"
     id="path102" />
  <path
     style="fill:#000000;stroke:none;stroke-width:0.264583px;stroke-linecap:butt;stroke-linejoin:miter;stroke-opacity:1"
     d="m 310.88545,7.937502 -1.32294,1.3229167 v 1.3229163 l 19.84376,-10e-7 1.32292,-1.3229201 V 7.937502 Z"
     id="path103" />
  <path
     style="fill:#000000;stroke:none;stroke-width:0.264583px;stroke-linecap:butt;stroke-linejoin:miter;stroke-opacity:1"
     d="m 304.27086,21.166674 -15.875,5.291662 v 2.645833 l 15.875,5.291667 v -2.645834 l -11.90625,-3.96875 11.90625,-3.96875 z"
     id="path108" />
  <path
     style="fill:#000000;stroke:none;stroke-width:0.264583px;stroke-linecap:butt;stroke-linejoin:miter;stroke-opacity:1"
     d="m 336.02087,21.166672 15.875,5.291662 v 2.645833 l -15.875,5.291667 V 31.75 l 11.90625,-3.96875 -11.90625,-3.96875 z"
     id="path108-8" />
  <path
     style="fill:#000000;stroke:none;stroke-width:0.264583px;stroke-linecap:butt;stroke-linejoin:miter;stroke-opacity:1"
     d="m 363.80209,13.229171 -1e-5,2.645833 h 1.32295 L 371.73962,5.2916686 V 2.645835 l -1.32291,-3e-7 z"
     id="path109"
     sodipodi:nodetypes="ccccccc" />
  <path
     id="path4"
     style="fill:#000000;stroke:none;stroke-width:0.264583px;stroke-linecap:butt;stroke-linejoin:miter;stroke-opacity:1"
     d="M 191.82292 74.083333 L 190.5 75.40625 L 190.5 89.958333 L 191.82292 89.958333 L 193.14583 88.635416 L 193.14583 79.375 L 209.02083 79.375 L 209.02083 89.958333 L 210.34375 89.958333 L 211.66667 88.635416 L 211.66667 76.729166 L 194.46875 76.729166 L 193.14583 78.052083 L 193.14583 74.083333 L 191.82292 74.083333 z " />
  <path
     id="path4-5"
     style="fill:#000000;stroke:none;stroke-width:0.264583px;stroke-linecap:butt;stroke-linejoin:miter;stroke-opacity:1"
     d="m 334.69796,76.729174 -1.32293,1.322917 v 11.906251 h 1.32293 l 1.32291,-1.32292 v -9.260415 h 15.875 v 10.583335 h 1.32292 l 1.32292,-1.32292 V 76.729173 h -17.19792 l -1.32292,1.322917 v -1.322916 z"
     sodipodi:nodetypes="ccccccccccccccc" />
  <path
     id="path4-5-4"
     style="fill:#000000;stroke:none;stroke-width:0.264583px;stroke-linecap:butt;stroke-linejoin:miter;stroke-opacity:1"
     d="m 138.90626,108.47917 1.32293,-1.32291 V 95.250006 h -1.32293 l -1.32291,1.32292 v 9.260414 h -15.875 V 95.250006 h -1.32292 l -1.32292,1.32292 v 11.906244 h 17.19792 l 1.32292,-1.32291 v 1.32291 z"
     sodipodi:nodetypes="ccccccccccccccc" />
  <path
     id="path7"
     style="fill:#000000;stroke:none;stroke-width:0.264583px;stroke-linecap:butt;stroke-linejoin:miter;stroke-opacity:1"
     d="m 223.57294,79.375005 -1.32292,1.322917 -2e-5,9.260411 h 1.32292 l 1.32291,-1.322917 5e-5,-7.937489 -1.32291,1.322917 1.32291,-1.322917 -3e-5,-1.322922 z"
     sodipodi:nodetypes="cccccccccc" />
  <path
     style="fill:#000000;stroke:none;stroke-width:0.264583px;stroke-linecap:butt;stroke-linejoin:miter;stroke-opacity:1"
     d="m 223.57294,74.083338 -1.32291,1.322916 v 1.322917 h 2.64583 v -2.645833 z"
     id="path8" />
  <path
     style="fill:#000000;stroke:none;stroke-width:0.264583px;stroke-linecap:butt;stroke-linejoin:miter;stroke-opacity:1"
     d="m 257.96878,74.083338 -1.32291,1.322916 v 1.322917 h 2.64583 v -2.645833 z"
     id="path8-4" />
  <path
     id="path7-0"
     style="fill:#000000;stroke:none;stroke-width:0.264583px;stroke-linecap:butt;stroke-linejoin:miter;stroke-opacity:1"
     d="m 257.96878,79.375005 -1.32292,1.322917 0,6.614583 -15.87498,5e-6 -2e-5,-2.645838 -1.3229,5e-6 -1.32293,1.322912 2e-5,2.645838 1.32291,1.322917 18.52083,-5e-6 1.32291,-1.322917 2e-5,-7.937495 -1.32291,1.322917 1.32291,-1.322917 -3e-5,-1.322922 z"
     sodipodi:nodetypes="cccccccccccccccc" />
  <path
     id="path30"
     style="fill:#000000;stroke:none;stroke-width:0.264583px;stroke-linecap:butt;stroke-linejoin:miter;stroke-opacity:1"
     d="M 1.3229167 95.25 L 0 96.572916 L 0 111.125 L 1.3229167 111.125 L 2.6458333 109.80208 L 2.6458333 108.47917 L 19.84375 108.47917 L 21.166667 107.15625 L 21.166667 95.25 L 1.3229167 95.25 z M 3.96875 97.895833 L 18.520833 97.895833 L 18.520833 104.51042 L 17.197917 105.83333 L 2.6458333 105.83333 L 2.6458333 99.21875 L 3.96875 97.895833 z " />
  <path
     id="path33"
     style="fill:#000000;stroke:none;stroke-width:0.264583px;stroke-linecap:butt;stroke-linejoin:miter;stroke-opacity:1"
     d="m 48.94793,95.250005 -1.322916,1.322917 -1.4e-5,11.906248 h 1.322916 l 1.322917,-1.32292 1.3e-5,-7.08706 1e-6,-0.850434 1.322917,-1.322917 15.874986,-6e-6 1.322916,-1.322917 V 95.25 H 51.59375 l -1.322903,6e-6 v -10e-7 z"
     sodipodi:nodetypes="ccccccccccccccc" />
  <path
     style="fill:#000000;stroke:none;stroke-width:0.264583px;stroke-linecap:butt;stroke-linejoin:miter;stroke-opacity:1"
     d="m 105.83335,92.604172 -1.32292,1.322917 0,15.875001 h 1.32292 l 1.32292,-1.32292 0,-15.874998 z"
     id="path34"
     sodipodi:nodetypes="ccccccc" />
  <path
     style="fill:#000000;stroke:none;stroke-width:0.264583px;stroke-linecap:butt;stroke-linejoin:miter;stroke-opacity:1"
     d="m 104.51043,95.250006 h -7.937493 l -1.322919,1.322917 v 1.322916 h 19.843752 l 1.32291,-1.322916 v -1.322917 z"
     id="path35" />
  <path
     style="fill:#000000;stroke:none;stroke-width:0.264583px;stroke-linecap:butt;stroke-linejoin:miter;stroke-opacity:1"
     d="m 215.63544,95.249998 -1.32291,1.32292 -1e-5,5.291672 v 1.32292 h 17.19793 l 1.32291,-1.32292 v 7.9375 h 1.32292 l 1.32291,-1.32292 0,-13.229165 h -1.32291 l -1.32292,1.32292 0,3.968745 h -1.32292 -14.55208 v -5.291672 z"
     id="path38"
     sodipodi:nodetypes="ccccccccccccccccc" />
</svg>
